<?xml version="1.0" encoding="UTF-8" standalone="no"?>
<!-- Created with Inkscape (http://www.inkscape.org/) -->

<svg
   xmlns:dc="http://purl.org/dc/elements/1.1/"
   xmlns:cc="http://creativecommons.org/ns#"
   xmlns:rdf="http://www.w3.org/1999/02/22-rdf-syntax-ns#"
   xmlns:svg="http://www.w3.org/2000/svg"
   xmlns="http://www.w3.org/2000/svg"
   xmlns:sodipodi="http://sodipodi.sourceforge.net/DTD/sodipodi-0.dtd"
   xmlns:inkscape="http://www.inkscape.org/namespaces/inkscape"
   width="640pt"
   height="640pt"
   viewBox="0 0 800.00002 799.99999"
   id="svg2"
   version="1.1"
   inkscape:version="0.91 r13725"
   sodipodi:docname="CapperFlat.svg"
   inkscape:export-filename="D:\Documents\CodeProjects\EndlessMaze\ImageComponents\Old\Capper.png"
   inkscape:export-xdpi="90"
   inkscape:export-ydpi="90">
  <defs
     id="defs4" />
  <sodipodi:namedview
     id="base"
     pagecolor="#ffffff"
     bordercolor="#666666"
     borderopacity="1.0"
     inkscape:pageopacity="0.0"
     inkscape:pageshadow="2"
     inkscape:zoom="0.98994949"
     inkscape:cx="566.25062"
     inkscape:cy="107.8214"
     inkscape:document-units="px"
     inkscape:current-layer="layer1"
     showgrid="true"
     units="pt"
     inkscape:window-width="1920"
     inkscape:window-height="1017"
     inkscape:window-x="-8"
     inkscape:window-y="184"
     inkscape:window-maximized="1">
    <inkscape:grid
       type="xygrid"
       id="grid3344" />
  </sodipodi:namedview>
  <metadata
     id="metadata7">
    <rdf:RDF>
      <cc:Work
         rdf:about="">
        <dc:format>image/svg+xml</dc:format>
        <dc:type
           rdf:resource="http://purl.org/dc/dcmitype/StillImage" />
        <dc:title />
      </cc:Work>
    </rdf:RDF>
  </metadata>
  <g
     inkscape:label="Layer 1"
     inkscape:groupmode="layer"
     id="layer1"
     transform="translate(0,-252.36222)">
    <path
       style="opacity:1;fill:#004600;fill-opacity:1;fill-rule:nonzero;stroke:none;stroke-width:10;stroke-linecap:butt;stroke-miterlimit:4;stroke-dasharray:none;stroke-opacity:1"
       d="m 704.51562,939.94084 c -1.03563,-0.004 -2.07493,0.004 -3.11523,0.027 -5.00279,0.004 -10.00626,1.6e-4 -15.00781,0.0625 -5.51638,0.0936 -11.0313,0.2632 -16.48828,0.69194 -4.86509,0.37492 -9.711,0.80071 -14.52149,1.32142 -3.8854,0.41482 -7.73785,0.89587 -11.61523,1.32719 -2.85802,0.29594 -5.69817,0.63504 -8.42774,1.15613 -1.93217,0.35253 -3.80087,0.8206 -5.83789,1.011 -2.4273,0.13502 -4.86634,0.0605 -7.30468,0.0702 -3.26839,-0.005 -6.53696,-0.017 -9.80469,0.0231 -2.81359,0.0535 -5.63351,0.15165 -8.32813,0.59007 -2.5779,0.43776 -5.06931,0.98152 -7.42578,1.6597 -2.45784,0.63509 -4.93296,1.25285 -7.38867,1.8894 -1.40927,0.47405 -2.75103,1.00434 -3.99414,1.57513 -2.92786,1.27118 -5.97594,2.48091 -8.69531,3.86431 -0.84827,0.42682 -1.9707,0.97859 -2.76367,1.43099 -1.72883,0.9863 -3.32269,2.04192 -5.4375,2.84754 -5.66836,2.17851 -12.20785,3.53201 -19.08204,4.46688 -6.46146,0.82168 -12.99167,1.51115 -19.63672,1.86152 -6.03647,0.37004 -12.05241,0.81526 -18.0957,1.15901 -5.04977,0.20704 -10.08849,0.47676 -15.11719,0.78325 -3.96061,0.19046 -7.93497,0.36082 -11.91796,0.35077 -2.94001,0.004 -5.88029,0.006 -8.82032,0.006 -2.21508,-0.004 -4.43346,-0.004 -6.64257,-0.0942 -2.01739,-0.11045 -4.00547,-0.32235 -6.0293,-0.40844 -3.65188,-0.25115 -7.22133,-0.69791 -10.7793,-1.16862 -5.00354,-0.74944 -9.95946,-1.563 -14.79687,-2.5477 -4.78218,-0.87471 -9.66359,-1.57135 -14.6836,-2.03547 -3.99954,-0.47944 -8.01499,-0.93015 -12.03515,-1.36467 -4.09587,-0.38581 -8.27858,-0.49834 -12.44532,-0.47859 -3.85402,0.003 -7.70794,0.01 -11.56054,0.0663 -3.71941,0.0687 -7.42897,0.20483 -11.14258,0.32387 -4.45609,0.0704 -8.9103,0.1985 -13.32422,0.52376 -5.45339,0.37774 -10.90489,0.75903 -16.33203,1.22244 -5.41867,0.43973 -10.88692,0.69165 -16.33789,1.01485 -5.18955,0.30421 -10.34355,0.74448 -15.42188,1.35698 -4.35065,0.58777 -8.63323,1.31112 -13.10937,1.64913 -3.02934,0.26039 -6.0652,0.49434 -9.14649,0.5353 -2.32499,-0.009 -4.65527,-0.0116 -6.97265,-0.11629 -2.60894,-0.12293 -5.19467,-0.3275 -7.80078,-0.46129 -2.64398,-0.16127 -5.29134,-0.31256 -7.92579,-0.50743 -3.45823,-0.29269 -6.93414,-0.52688 -10.39648,-0.80823 -5.11524,-0.49181 -10.21761,-1.01268 -15.30078,-1.57993 -6.05301,-0.63969 -12.12079,-1.22413 -18.23438,-1.7068 -3.36966,-0.31437 -6.71614,-0.68733 -10.06445,-1.04945 -2.13756,-0.31795 -4.31484,-0.55945 -6.49219,-0.8015 -2.99392,-0.27177 -5.96258,-0.60594 -8.94922,-0.89569 -2.84166,-0.29031 -5.67655,-0.59619 -8.53124,-0.85436 -2.97506,-0.25138 -5.90375,-0.621 -8.90821,-0.78131 -2.78243,-0.15008 -5.58573,-0.26115 -8.38476,-0.27678 -1.83021,7.2e-4 -3.66198,-0.002 -5.49219,0 -1.79009,1.2e-4 -3.57904,4.7e-4 -5.36914,-7.2e-4 -2.24248,2.2e-4 -4.48604,-0.006 -6.72852,-0.002 -1.95047,0.003 -3.90108,0.003 -5.85156,7.2e-4 -1.74976,-7.2e-4 -3.49829,4.3e-4 -5.24805,7.2e-4 -1.86965,0.004 -3.74103,0.009 -5.60742,0.0692 -1.96792,0.0792 -3.91918,0.22513 -5.88281,0.32386 -1.9294,0.0536 -3.84383,0.16 -5.74024,0.3479 -1.87631,0.13882 -3.76341,0.24048 -5.625,0.4267 -1.93355,0.11844 -3.8446,0.31375 -5.7871,0.39594 -2.37946,0.13386 -4.74812,0.30646 -7.13282,0.41709 -2.09432,0.14617 -4.18871,0.29554 -6.27539,0.46418 -2.14061,0.2199 -4.305457,0.36948 -6.455076,0.56701 -2.607567,0.20597 -5.17505,0.51694 -7.771485,0.75345 -2.818287,0.2917 -5.647117,0.55315 -8.535156,0.58527 -3.074084,0.15336 -6.10117,0.43121 -9.150391,0.66887 -2.696031,0.0858 -5.38715,0.24511 -8.089843,0.25083 -2.062541,0.002 -4.124973,0.002 -6.1875,-0.003 -2.700796,-0.004 -5.400764,-0.003 -8.101563,0 -1.945344,10e-4 -3.891363,-0.002 -5.835937,0.0288 -1.829863,0.0382 -3.660356,0.1023 -5.464844,0.26429 -1.850022,0.14933 -3.730399,0.21237 -5.544922,0.45554 -1.82959,0.23816 -3.670415,0.45455 -5.478515,0.73134 -2.08899,0.31938 -4.200733,0.60325 -6.251954,0.98026 -2.516652,0.46785 -5.041533,0.92649 -7.496093,1.47038 -3.1490428,0.71542 -6.3467381,1.3794 -9.4277348,2.16617 -0.2416495,0.0586 -0.6958429,0.17821 -1.0742187,0.27581 -0.5384309,0.17527 -1.0637488,0.35407 -1.69140625,0.58143 C 0.42635875,969.17091 0.2139449,969.25419 0,969.33599 l 0,83.02171 800,0 0,-104.1856 c -7.9629,-0.61271 -15.92118,-1.23441 -23.85742,-1.92783 -5.28847,-0.47072 -12.10257,-1.06564 -17.34961,-1.58091 -10.94817,-1.07511 -21.80679,-2.3599 -32.7793,-3.37611 -7.10803,-0.69386 -14.24858,-1.32087 -21.49805,-1.34641 z"
       id="path4184"
       inkscape:connector-curvature="0" />
    <path
       style="opacity:1;fill:#006300;fill-opacity:1;fill-rule:nonzero;stroke:none;stroke-width:10;stroke-linecap:butt;stroke-miterlimit:4;stroke-dasharray:none;stroke-opacity:1"
       d="m 591.52539,952.52046 c 0.48111,-0.13481 -0.98014,0.25408 -1.45117,0.39672 -0.0438,0.0133 -0.0853,0.0285 -0.12891,0.0418 0.52707,-0.14582 1.05471,-0.29132 1.58008,-0.43853 z"
       id="rect4140"
       inkscape:connector-curvature="0" />
    <path
       style="opacity:1;fill:#00f000;fill-opacity:1;fill-rule:nonzero;stroke:none;stroke-width:10;stroke-linecap:butt;stroke-miterlimit:4;stroke-dasharray:none;stroke-opacity:1"
       d="m 408.38672,938.71616 c -0.36023,7.2e-4 -0.71944,0.006 -1.08008,0.0168 -3.04731,-0.006 -6.09527,-0.003 -9.14258,0.005 -2.51549,0.009 -5.03178,0.0152 -7.54492,0.11892 -2.49986,0.12249 -4.98645,0.35046 -7.48047,0.53236 -2.57177,0.0661 -5.14491,0.18373 -7.69531,0.48871 -2.73698,0.30334 -5.49124,0.4455 -8.2207,0.80272 -2.25591,0.24923 -4.51836,0.45582 -6.76954,0.73769 -2.01954,0.29253 -3.9884,0.76353 -5.91406,1.36018 -2.55272,0.85657 -5.12836,1.66084 -7.73828,2.3831 -3.56101,1.16405 -7.02923,2.50556 -10.44336,3.95509 -4.74854,1.98202 -9.34412,4.18895 -13.99023,6.33728 -4.2816,1.88033 -8.56307,3.84367 -13.26172,4.86653 -4.49974,1.05478 -9.01074,2.04913 -13.67969,2.38866 -5.37009,0.51143 -10.75252,0.98108 -16.16211,1.022 -5.43079,0.002 -10.86024,0.007 -16.29101,0.003 -4.71871,-0.0216 -9.44263,-0.027 -14.1543,-0.27501 -4.63305,-0.25937 -9.25269,-0.66478 -13.86914,-1.08145 -5.74909,-0.62815 -11.48532,-1.33083 -17.20508,-2.13131 -5.76541,-0.82752 -11.53526,-1.65467 -17.37305,-2.01425 -5.1093,-0.33504 -8.20914,-0.63976 -13.33711,-0.59554 C 185.36313,957.63138 185,957.21976 180,956.89219 l 0,95.46571 440,0 0,-105.02615 c 0,-2.00424 0,-2.00424 -4.07303,-2.15175 -5.42189,-0.45314 -10.92697,0.14751 -14.7295,1.56951 -4.79117,0.43011 -9.31223,2.5582 -14.10293,2.9934 -4.22992,0.48455 -5.41785,1.70317 -9.67071,2.02335 -3.47729,0.35859 -6.96413,0.65223 -10.44531,0.98018 -3.06283,0.34778 -6.13285,0.64753 -9.18555,1.05823 -2.65406,0.26486 -5.30067,0.57501 -7.9668,0.74512 -2.36747,0.11618 -4.74081,0.0427 -7.11133,0.0632 -2.63074,-0.005 -5.26096,-0.008 -7.89062,-0.0808 -3.41812,-0.1122 -6.8329,-0.30059 -10.23633,-0.59741 -3.79323,-0.26234 -7.59645,-0.41928 -11.38086,-0.77949 -3.39013,-0.20352 -6.75435,-0.56906 -10.09961,-1.08424 -2.62881,-0.41122 -5.24437,-0.72111 -7.91601,-0.84082 -2.69305,-0.32898 -5.3527,-0.81914 -8.03125,-1.22175 -4.72947,-0.73809 -9.47456,-1.40203 -14.20899,-2.11645 -6.54632,-1.0255 -13.10541,-2.00005 -19.63281,-3.11056 -6.17722,-1.04289 -12.3696,-2.00041 -18.55078,-3.02417 -3.48022,-0.60115 -6.97832,-1.08537 -10.47461,-1.60824 -2.76705,-0.46144 -5.56084,-0.7823 -8.36133,-1.0573 -2.51164,-0.18171 -5.02334,-0.38312 -7.54492,-0.37535 z"
       id="rect4138"
       inkscape:connector-curvature="0"
       sodipodi:nodetypes="cccccccccccccccccccccccccccccccccccccccccccccc" />
  </g>
</svg>
